<?xml version="1.0" standalone="no"?>
<!DOCTYPE svg PUBLIC "-//W3C//DTD SVG 20010904//EN"
 "http://www.w3.org/TR/2001/REC-SVG-20010904/DTD/svg10.dtd">
<svg version="1.0" xmlns="http://www.w3.org/2000/svg"
 width="512.000000pt" height="512.000000pt" viewBox="0 0 512.000000 512.000000"
 preserveAspectRatio="xMidYMid meet">
<metadata>
Created by potrace 1.14, written by Peter Selinger 2001-2017
</metadata>
<g transform="translate(0.000000,512.000000) scale(0.100000,-0.100000)"
fill="#000000" stroke="none">
<path d="M1960 5075 c-26 -38 -38 -46 -102 -65 -275 -86 -593 -264 -827 -465
-87 -74 -245 -240 -320 -336 -100 -128 -90 -114 -128 -174 -18 -27 -36 -55
-41 -60 -35 -43 -171 -315 -219 -440 -59 -153 -117 -359 -138 -485 -3 -19 -8
-42 -10 -50 -2 -8 -7 -42 -11 -75 -3 -33 -8 -69 -11 -80 -2 -11 -6 -114 -9
-230 l-4 -210 -43 -65 -44 -65 54 -35 c29 -19 56 -44 58 -55 3 -11 9 -49 15
-85 56 -340 211 -732 399 -1009 20 -29 41 -61 46 -70 6 -9 16 -23 22 -31 7 -8
45 -55 85 -105 78 -98 234 -257 313 -320 28 -22 55 -45 60 -51 6 -6 26 -22 45
-34 19 -13 37 -27 40 -31 13 -18 208 -136 310 -188 201 -103 423 -182 607
-216 15 -2 39 -7 53 -10 14 -3 43 -7 65 -10 22 -3 56 -8 75 -11 77 -13 417
-12 520 1 149 19 165 22 315 60 185 47 392 130 558 224 21 11 53 21 72 21 28
0 35 4 35 20 0 10 10 26 23 35 96 68 193 139 197 144 3 3 23 20 45 36 66 49
259 248 342 352 312 392 497 845 557 1363 14 115 14 517 1 590 -3 19 -13 78
-21 130 -100 646 -449 1244 -957 1637 -212 164 -461 295 -725 382 -92 30 -285
76 -364 86 -27 3 -48 10 -48 15 0 5 -182 9 -430 9 l-430 0 -30 -44z"/>
</g>
</svg>
