<?xml version="1.0" standalone="no"?>
<!DOCTYPE svg PUBLIC "-//W3C//DTD SVG 20010904//EN"
 "http://www.w3.org/TR/2001/REC-SVG-20010904/DTD/svg10.dtd">
<svg version="1.0" xmlns="http://www.w3.org/2000/svg"
 width="310.000000pt" height="310.000000pt" viewBox="0 0 310.000000 310.000000"
 preserveAspectRatio="xMidYMid meet">
<metadata>
Created by potrace 1.11, written by Peter Selinger 2001-2013
</metadata>
<g transform="translate(0.000000,310.000000) scale(0.100000,-0.100000)"
fill="#000000" stroke="none">
<path d="M1390 3094 c-307 -47 -525 -130 -741 -285 -257 -183 -484 -487 -570
-764 -57 -182 -79 -319 -79 -495 0 -299 72 -555 227 -809 74 -122 119 -178
227 -287 104 -103 162 -150 266 -215 266 -165 523 -239 830 -239 265 0 514 63
740 186 112 62 258 173 355 269 515 515 602 1320 209 1928 -69 106 -107 153
-192 241 -212 218 -459 360 -744 430 -83 21 -243 46 -290 46 l-38 0 0 -655 0
-655 665 0 665 0 0 -40 0 -40 -321 0 -320 0 5 -447 c4 -247 9 -580 12 -740 l5
-293 -39 0 -39 0 -6 333 c-4 182 -10 515 -14 740 l-6 407 -304 0 -303 0 0
-230 0 -230 -40 0 -40 0 0 230 0 230 -340 0 -340 0 0 40 0 40 340 0 340 0 0
576 c0 376 -3 575 -10 572 -8 -3 -252 -320 -525 -683 -46 -60 -121 -159 -167
-220 -46 -60 -182 -240 -302 -400 -120 -159 -229 -301 -241 -314 -22 -22 -23
-23 -49 -6 -15 10 -26 24 -24 31 3 12 127 178 651 868 109 143 207 272 217
286 10 14 63 84 117 155 54 72 149 196 211 278 62 81 112 152 112 157 0 10
-58 11 -110 4z"/>
</g>
</svg>
